<?xml version="1.0" encoding="UTF-8" standalone="no"?>
<svg
   xmlns:dc="http://purl.org/dc/elements/1.1/"
   xmlns:cc="http://creativecommons.org/ns#"
   xmlns:rdf="http://www.w3.org/1999/02/22-rdf-syntax-ns#"
   xmlns:svg="http://www.w3.org/2000/svg"
   xmlns="http://www.w3.org/2000/svg"
   xmlns:sodipodi="http://sodipodi.sourceforge.net/DTD/sodipodi-0.dtd"
   xmlns:inkscape="http://www.inkscape.org/namespaces/inkscape"
   width="235"
   height="235"
   viewBox="0 0 235 235"
   fill="none"
   version="1.1"
   id="svg33"
   sodipodi:docname="Combinationmark White Border.svg"
   inkscape:version="1.0.1 (3bc2e813f5, 2020-09-07)">
  <metadata
     id="metadata37">
    <rdf:RDF>
      <cc:Work
         rdf:about="">
        <dc:format>image/svg+xml</dc:format>
        <dc:type
           rdf:resource="http://purl.org/dc/dcmitype/StillImage" />
        <dc:title></dc:title>
      </cc:Work>
    </rdf:RDF>
  </metadata>
  <sodipodi:namedview
     pagecolor="#ffffff"
     bordercolor="#666666"
     borderopacity="1"
     objecttolerance="10"
     gridtolerance="10"
     guidetolerance="10"
     inkscape:pageopacity="0"
     inkscape:pageshadow="2"
     inkscape:window-width="1920"
     inkscape:window-height="1057"
     id="namedview35"
     showgrid="false"
     inkscape:zoom="1.1638655"
     inkscape:cx="476"
     inkscape:cy="117.5"
     inkscape:window-x="-8"
     inkscape:window-y="-5"
     inkscape:window-maximized="1"
     inkscape:current-layer="svg33" />
  <g
     clip-path="url(#clip0_807_482)"
     id="g19">
    <mask
       id="mask0_807_482"
       maskUnits="userSpaceOnUse"
       x="0"
       y="0"
       width="234"
       height="234">
      <path
         d="M 234,0 H 0 v 234 h 234 z"
         fill="#ffffff"
         id="path2" />
    </mask>
    <g
       mask="url(#mask0_807_482)"
       id="g17">
      <path
         d="M 234,0 H 0 v 234 h 234 z"
         fill="#68217a"
         id="path5" />
      <path
         d="M 238.331,15.7477 0.770185,0.721272 C -5.52752,0.322924 -11.2474,5.07845 -12.0054,11.343 l -1.7038,14.0798 c -0.7581,6.2646 3.73264,11.6659 10.03034,12.0643 L 233.882,52.5135 c 6.298,0.3983 12.018,-4.3572 12.776,-10.6218 l 1.703,-14.0797 c 0.759,-6.2646 -3.732,-11.666 -10.03,-12.0643 z"
         fill="#993399"
         id="path7" />
      <path
         d="M 237.824,76.1954 49.0373,64.2541 C 42.7396,63.8558 37.0197,68.6113 36.2617,74.8759 l -1.7038,14.0797 c -0.7581,6.2646 3.7326,11.6664 10.0303,12.0644 l 188.7868,11.941 c 6.298,0.399 12.017,-4.357 12.776,-10.622 l 1.703,-14.0793 c 0.758,-6.2646 -3.732,-11.666 -10.03,-12.0643 z"
         fill="#993399"
         id="path9" />
      <path
         d="M 189.8,133.138 0.770187,121.181 C -5.52752,120.783 -11.2474,125.539 -12.0054,131.803 l -1.7038,14.08 c -0.7581,6.265 3.73264,11.666 10.03034,12.064 L 185.351,169.904 c 6.298,0.398 12.018,-4.357 12.776,-10.622 l 1.704,-14.08 c 0.758,-6.264 -3.733,-11.665 -10.031,-12.064 z"
         fill="#993399"
         id="path11" />
      <path
         d="M 238.331,196.438 0.770185,181.411 C -5.52752,181.013 -11.2474,185.769 -12.0054,192.033 l -1.7038,14.08 c -0.7581,6.264 3.73264,11.666 10.03034,12.064 L 233.882,233.204 c 6.298,0.398 12.018,-4.358 12.776,-10.622 l 1.703,-14.08 c 0.759,-6.265 -3.732,-11.666 -10.03,-12.064 z"
         fill="#993399"
         id="path13" />
      <path
         fill-rule="evenodd"
         clip-rule="evenodd"
         d="m 67.4442,71.6232 -2.5768,29.5678 15.9714,17.046 c 8.7846,9.375 16.0916,17.105 16.2393,17.177 0.148,0.072 0.8729,-6.792 1.6238,-15.373 0.7459,-8.527 1.9641,-21.3556 2.7081,-28.5068 l 1.351,-13.0025 5.633,0.499 c 7.516,0.6659 16.39,1.9616 19.131,2.7934 4.034,1.2235 6.203,3.0982 8.346,7.2143 l 0.895,1.7184 -1.926,24.3262 c -2.032,25.652 -2.438,28.928 -3.925,31.624 -1.187,2.152 -3.038,3.874 -5.833,5.423 l -2.503,1.388 -30.7102,-2.322 c -16.89,-1.276 -30.7664,-2.281 -30.8363,-2.233 -0.07,0.049 -0.8656,7.653 -1.7687,16.899 l -1.6412,16.812 7.0154,0.605 c 16.1108,1.39 52.815,3.97 56.105,3.944 6.158,-0.049 12.323,-1.261 18.883,-3.711 4.517,-1.687 6.254,-2.545 9.976,-4.926 7.968,-5.099 14.201,-13.267 17.17,-22.501 1.082,-3.367 3.948,-30.912 5.237,-50.336 1.032,-15.5507 1.049,-16.1649 0.532,-19.2133 -2.257,-13.3134 -9.798,-24.204 -21.495,-31.0421 -6.009,-3.5127 -12.631,-5.9642 -20.065,-7.4272 -2.296,-0.452 -13.321,-1.5973 -32.2252,-3.3488 L 70.0209,42.0552 Z"
         fill="#ffffff"
         id="path15" />
    </g>
  </g>
  <mask
     id="path-9-inside-1_807_482"
     fill="#ffffff">
    <path
       fill-rule="evenodd"
       clip-rule="evenodd"
       d="M 454.373,8.36299 C 436.626,10.4726 422.897,21.3772 419.94,35.7143 c -3.011,14.5958 3.57,29.6958 16.205,37.1815 6.127,3.63 9.826,4.9681 18.645,6.7442 9.273,1.8679 13.689,3.5664 16.634,6.3979 1.913,1.841 2.314,2.6413 2.313,4.6163 -0.006,5.6888 -4.866,9.0692 -12.997,9.0416 -7.881,-0.0269 -15.94,-3.0977 -21.514,-8.1973 -1.431,-1.3093 -2.898,-2.2062 -3.26,-1.9933 -0.361,0.2129 -2.7,2.3531 -5.196,4.7557 -2.497,2.4021 -6.241,5.9751 -8.322,7.9401 -2.08,1.964 -3.782,3.834 -3.782,4.155 0,0.321 1.937,2.604 4.305,5.073 9.915,10.337 21.482,15.571 34.413,15.571 9.557,0 17.04,-1.82 25.433,-6.184 14.431,-7.504 21.418,-20.403 19.391,-35.798 -1.098,-8.3429 -3.266,-13.281 -8.098,-18.4467 -5.695,-6.0877 -13.921,-9.9122 -27.936,-12.9898 -4.327,-0.9501 -9.095,-2.2643 -10.596,-2.9202 -5.772,-2.5244 -8.173,-6.0272 -7.192,-10.4941 2.29,-10.4305 18.973,-10.8062 30.377,-0.6835 l 2.087,1.8521 9.513,-7.416 9.514,-7.416 -3.839,-3.972 C 491.543,17.8818 484.795,13.1983 479.916,11.3414 472.698,8.59303 462.471,7.40058 454.373,8.36299 Z M 552.092,8.32444 C 532.942,10.2548 519.324,19.9798 513.845,35.6366 l -1.676,4.7894 v 27.2264 27.2265 l 1.703,4.8714 c 2.963,8.4737 8.016,14.9957 15.126,19.5207 8,5.091 14.865,7.121 25.561,7.558 9.133,0.373 14.952,-0.756 22.367,-4.337 8.07,-3.898 16.029,-11.349 19.76,-18.498 1.23,-2.359 1.3,-2.804 0.514,-3.303 -0.499,-0.317 -6.057,-2.9824 -12.35,-5.9222 l -11.442,-5.345 -0.937,1.5039 c -0.515,0.8272 -2.078,2.6425 -3.475,4.0344 -3.473,3.4623 -7.433,4.7374 -13.589,4.3776 -5.921,-0.3469 -9.771,-2.1909 -12.367,-5.9225 l -1.821,-2.6186 -0.18,-22.1146 c -0.206,-25.1346 -0.128,-25.6694 4.296,-29.4976 3.407,-2.9478 7.919,-4.2125 13.506,-3.7854 5.637,0.4313 9.522,2.202 12.964,5.9072 l 2.746,2.957 10.937,-4.4303 c 6.015,-2.4369 11.245,-4.6236 11.622,-4.8591 1.434,-0.8963 -4.901,-10.9377 -9.752,-15.4585 C 581.151,13.733 572.31,9.46673 564.822,8.64259 557.722,7.86067 556.9,7.83987 552.092,8.32444 Z m 94.734,0.03793 C 626.969,10.3098 611.785,21.51 607.084,37.6776 c -1.276,4.3911 -1.915,45.9791 -0.831,54.2076 1.633,12.4128 7.464,21.2218 18.484,27.9258 8.585,5.223 19.238,7.56 32.012,7.021 9.325,-0.392 15.943,-2.101 23.636,-6.103 6.419,-3.338 13.76,-10.623 16.527,-16.399 3.568,-7.451 3.758,-9.3135 3.768,-36.9419 0.009,-23.5732 -0.066,-25.3243 -1.268,-29.8267 C 696.094,25.1278 686.206,15.6224 671.64,10.8611 664.402,8.49575 655.059,7.55476 646.826,8.36237 Z M 274.023,33.899 v 24.3698 l 14.374,13.0375 14.373,13.0369 0.159,-23.703 0.158,-23.7023 10.13,0.2178 c 11.594,0.249 14.327,1.0818 17.09,5.2037 l 1.513,2.2576 0.173,21.9335 c 0.163,20.623 0.103,22.0944 -1.006,24.6274 -0.776,1.7743 -2.06,3.2843 -3.759,4.4211 l -2.58,1.7272 -25.161,0.3059 -25.161,0.3059 -0.163,13.97 -0.163,13.969 26.186,-0.26 c 24.536,-0.243 26.511,-0.344 31.331,-1.605 15.251,-3.986 25.123,-13.015 28.843,-26.3799 0.992,-3.5645 1.108,-6.6408 1.111,-29.6738 0.003,-22.4156 -0.129,-26.1814 -1.036,-29.4932 C 357.009,25.9543 348.86,17.2682 336.433,12.8783 328.05,9.91765 323.568,9.52852 297.849,9.52852 h -23.826 z m 102.884,33.7644 v 58.1346 l 14.374,-0.164 14.373,-0.164 0.154,-57.9705 0.155,-57.97098 h -14.528 -14.528 z m 338.912,0 v 58.1346 l 14.676,-0.164 14.676,-0.164 0.161,-18.235 0.16,-18.2346 2.659,0.186 2.66,0.186 12.962,18.0486 12.962,18.049 17.958,0.163 c 9.877,0.089 17.958,0.008 17.958,-0.181 0,-0.307 -6.252,-8.371 -24.334,-31.3856 -3.259,-4.1482 -5.926,-7.7458 -5.926,-7.9942 0,-0.2484 1.489,-1.0756 3.309,-1.8379 5.068,-2.1237 11.146,-8.1533 13.902,-13.7913 2.746,-5.6203 4.558,-14.0415 4.569,-21.2446 0.026,-17.8281 -8.063,-30.7622 -22.732,-36.344 C 773.882,9.97883 768.478,9.53342 741.086,9.53097 L 715.819,9.52852 Z M 819.914,33.8665 v 24.4194 l 13.416,12.1785 c 7.379,6.6977 13.76,12.5223 14.179,12.9427 0.419,0.4209 0.918,0.7648 1.109,0.7648 0.19,0 0.345,-10.6 0.345,-23.5555 V 37.0609 l 8.624,0.0147 c 12.771,0.0226 16.768,1.3638 19.225,6.4499 1.129,2.3384 1.2,3.7683 1.188,23.8614 -0.016,24.4738 -0.11,25.019 -4.887,28.2164 l -2.574,1.7229 -25.162,0.3059 -25.161,0.3059 -0.163,13.97 -0.162,13.969 26.186,-0.26 c 24.536,-0.243 26.511,-0.344 31.331,-1.605 15.386,-4.021 25.789,-13.697 28.789,-26.7757 0.784,-3.4153 0.902,-8.4378 0.74,-31.3563 l -0.194,-27.2895 -1.686,-4.2828 C 900.502,22.7398 891.08,14.8967 877.393,11.2796 872.562,10.0027 870.742,9.90969 846.089,9.68515 l -26.175,-0.238 z m -172.499,1.5461 c -4.211,0.9575 -8.566,3.5101 -10.384,6.0865 -1.397,1.9811 -1.401,2.0435 -1.573,25.2099 -0.124,16.7299 0.026,23.709 0.537,24.9572 3.481,8.4948 21.984,10.9618 31.262,4.1671 4.369,-3.1992 4.383,-3.2879 4.383,-28.1399 0,-24.8305 0.025,-24.661 -4.283,-28.3889 -4.306,-3.7261 -13.114,-5.4447 -19.942,-3.8919 z m 98.059,14.8027 v 13.1543 l 9.532,-0.0037 c 10.802,-0.0036 13.193,-0.4784 16.3,-3.2365 5.709,-5.0672 5.947,-13.8635 0.518,-19.1497 -3.405,-3.3161 -6.056,-3.9188 -17.237,-3.9188 h -9.113 z"
       id="path21" />
  </mask>
  <defs
     id="defs31">
    <clipPath
       id="clip0_807_482">
      <rect
         width="234"
         height="234"
         rx="30"
         fill="#ffffff"
         id="rect28"
         x="0"
         y="0" />
    </clipPath>
  </defs>
</svg>
